<?xml version="1.0" encoding="UTF-8"?>
<svg version="1.1" viewBox="0 0 1271.4 1069.9" xml:space="preserve" xmlns="http://www.w3.org/2000/svg">
<style type="text/css">
	.st0{fill:#FFFFFF;}
</style>
		<path class="st0" d="m409.1 138.2c8.9-9.5 19.3-17 30-24.3 11.4-7.9 22.8-15.6 34.3-23.3 22.7-15.2 45.7-30 68.9-44.5 1.6-1 0.1-3.6-1.5-2.6-23.7 14.8-47.2 30-70.5 45.6-11.5 7.7-22.9 15.4-34.2 23.3-10.3 7.2-20.5 14.6-29.1 23.8-1.3 1.3 0.8 3.5 2.1 2z"/>
		<path class="st0" d="m556.2 44.1c8.6-2.3 17.2-4.5 25.8-6.8 1.9-0.5 1.1-3.4-0.8-2.9-8.6 2.3-17.2 4.5-25.8 6.8-1.8 0.5-1 3.4 0.8 2.9z"/>
		<path class="st0" d="m563 38.4c28.7-9.3 57.9-18.5 88.4-18.6-0.1-1-0.3-2-0.4-2.9-29.4 4-57.1 15.4-86.4 19.8 0.3 1 0.5 1.9 0.8 2.9 15.4-6.1 31.4-10.3 47.8-12.6 1.9-0.3 1.1-3.2-0.8-2.9-16.4 2.3-32.4 6.5-47.8 12.6-1.8 0.7-1.1 3.2 0.8 2.9 29.3-4.5 57-15.8 86.4-19.8 1.7-0.2 1.3-3-0.4-2.9-30.8 0.1-60.2 9.4-89.2 18.7-1.8 0.5-1 3.3 0.8 2.8z"/>
		<path class="st0" d="m407 135.4c-10.2 10.8-20.4 21.5-30.7 32.3-1.3 1.4 0.7 3.4 2.1 2.1 5.1-4.7 10-9.6 14.7-14.7 1.3-1.4-0.7-3.5-2.1-2.1-7.7 7.6-15 15.7-21.7 24.2-1.2 1.5 0.7 3.6 2.1 2.1 2.4-2.5 4.9-5.1 7.3-7.6l-2.4-1.8c-6.5 9.2-13.3 18.1-20.5 26.7-1.2 1.5 0.9 3.6 2.1 2.1 7.3-8.8 14.3-17.9 21-27.3 1-1.4-1.2-3-2.4-1.8-2.4 2.5-4.9 5.1-7.3 7.6l2.1 2.1c6.7-8.5 14-16.6 21.7-24.2l-2.1-2.1c-4.7 5.1-9.6 10-14.7 14.7l2.1 2.1c10.2-10.8 20.4-21.5 30.7-32.3 1.5-1.3-0.6-3.5-2-2.1z"/>
		<path class="st0" d="m360 193.3c-7 12.9-14.3 25.7-21.8 38.4-0.8 1.4 1.3 3.2 2.4 1.8 4.4-5.5 8-11.4 10.9-17.9 0.8-1.7-1.7-3.3-2.6-1.5-7.6 14.7-14.4 29.8-20.5 45.2 1 0.3 1.9 0.5 2.9 0.8 0.6-3.2 1.7-6 3.3-8.8-0.9-0.5-1.7-1-2.6-1.5-4.6 10.3-8.7 20.8-12.1 31.5 1 0.1 2 0.3 2.9 0.4 0.2-1.9 0.5-3.8 0.7-5.7 0.2-1.7-2.7-2.1-2.9-0.4-1.8 10.4-4.5 20.6-7.9 30.5 1 0.3 1.9 0.5 2.9 0.8 0.5-3.4 1-6.7 1.5-10.1 0.3-1.9-2.6-2.7-2.9-0.8-2.4 14.2-3.7 28.5-4.1 42.8h3v-4.5h-3c0.3 12.3 0.7 24.7 1 37 0.1 1.9 3.1 1.9 3 0-0.3-12.3-0.7-24.7-1-37-0.1-1.9-3-1.9-3 0v4.5c0 1.9 2.9 1.9 3 0 0.4-14.1 1.7-28.1 4-42.1-1-0.3-1.9-0.5-2.9-0.8-0.5 3.4-1 6.7-1.5 10.1-0.3 1.9 2.2 2.7 2.9 0.8 3.5-10 6.1-20.1 7.9-30.5-1-0.1-2-0.3-2.9-0.4-0.2 1.9-0.5 3.8-0.7 5.7-0.2 1.7 2.5 1.9 2.9 0.4 3.3-10.5 7.3-20.8 11.8-30.8 0.8-1.7-1.6-3.2-2.6-1.5-1.8 3-2.9 6.1-3.6 9.6-0.4 1.9 2.2 2.6 2.9 0.8 6-15.2 12.7-30 20.2-44.5-0.9-0.5-1.7-1-2.6-1.5-2.8 6.2-6.2 11.9-10.4 17.3l2.4 1.8c7.5-12.7 14.7-25.4 21.8-38.4 0.8-1.6-1.8-3.2-2.7-1.5z"/>
		<path class="st0" d="m309.1 361.9c2.6 11.1 5.2 22.1 7.8 33.2 0.4 1.9 3.3 1.1 2.9-0.8-2.6-11.1-5.2-22.1-7.8-33.2-0.4-1.8-3.3-1-2.9 0.8z"/>
		<path class="st0" d="m314.3 389.6c1.9 8.7 4.2 17.3 7.1 25.7 0.6 1.8 3.5 1 2.9-0.8-2.8-8.4-5.2-17-7.1-25.7-0.4-1.9-3.3-1.1-2.9 0.8z"/>
		<path class="st0" d="m323.3 418.7c4 6.9 7.1 14.2 9.5 21.8 0.6 1.8 3.5 1.1 2.9-0.8-2.4-7.9-5.7-15.4-9.8-22.5-0.9-1.7-3.5-0.2-2.6 1.5z"/>
		<path class="st0" d="m336.1 442.7c5.3 11.3 11.4 22.2 18.2 32.7 1 1.6 3.6 0.2 2.6-1.5-3.7-6.2-7.2-12.5-10.4-19-0.8-1.5-3.2-0.5-2.7 1.2 3.1 10.1 7.2 19.7 12.6 28.9 0.8 1.3 2.7 0.7 2.8-0.8 0.3-5.1-1-9.7-2.5-14.5-0.9 0.4-1.8 0.8-2.7 1.2 2.3 5.3 4.7 10.5 7 15.8 0.6 1.4 2.8 0.6 2.8-0.8 0-1.1 0-2.3-0.1-3.4-1 0.1-2 0.3-2.9 0.4 1.7 5.6-1 10.6-3.8 15.3-1 1.7 1.6 3.2 2.6 1.5 3.2-5.5 6.1-11.2 4.1-17.6-0.5-1.6-3-1.3-2.9 0.4 0 1.1 0 2.3 0.1 3.4 0.9-0.3 1.9-0.5 2.8-0.8-2.3-5.3-4.7-10.5-7-15.8-0.7-1.6-3.3-0.4-2.7 1.2 1.5 4.5 2.7 8.8 2.4 13.7 0.9-0.3 1.9-0.5 2.8-0.8-5.2-8.9-9.3-18.3-12.3-28.2-0.9 0.4-1.8 0.8-2.7 1.2 3.2 6.5 6.7 12.8 10.4 19 0.9-0.5 1.7-1 2.6-1.5-6.8-10.5-12.9-21.4-18.2-32.7-1.1-1.8-3.7-0.3-2.9 1.5z"/>
		<path class="st0" d="m367.9 515.8c5.3 7.8 11.6 14.8 18.9 21 1.5 1.2 3.6-0.9 2.1-2.1-7-6-13.2-12.7-18.4-20.3-1-1.7-3.6-0.2-2.6 1.4z"/>
		<path class="st0" d="m368.5 510.3c-4.2-3.6-8.5-7.3-12.7-10.9-1.2-1.1-3.3 0.3-2.4 1.8 4.7 7.8 10.2 15.1 16.3 21.8 3.2 3.5 6.6 6.8 10.2 10 2.5 2.2 5.6 5.7 8.8 6.8 1.6 0.5 3.6 0.6 4.4-1.2 1-2.2-1.3-4.3-2.5-5.9-6.2-7.9-13.3-14.9-21-21.3-1.3-1-3.2 0.3-2.4 1.8 5.2 9.1 11.6 17.2 19.3 24.4 1.4 1.3 3.5-0.8 2.1-2.1-7.5-7-13.7-14.9-18.8-23.8l-2.4 1.8c5.3 4.4 10.3 9 14.9 14.1 2 2.2 5.3 5 6.5 7.7 1.3 1.1 1.3 1.5-0.1 1.1l-3-2.4c-1.3-1.1-2.6-2.1-3.9-3.2-10.3-9-19-19.5-26.1-31.1l-2.4 1.8c4.2 3.6 8.5 7.3 12.7 10.9 1.8 1.2 4-0.9 2.5-2.1z"/>
		<path class="st0" d="m534.5 324.7c0.8-7.1 1.9-14.1 3.5-21.1 0.4-1.7-1.7-2.5-2.7-1.2-1.5 2-2.9 4-4.4 6 0.9 0.4 1.8 0.8 2.7 1.2 2.5-6 4.3-12.1 5.7-18.5 0.4-1.9-2.3-2.7-2.9-0.8-0.4 1.3-0.4 1.5 0 2.7 0.5 1.6 2.9 1.3 2.9-0.4 0.2-4.9 0.7-9.6 1.6-14.4-1-0.1-2-0.3-2.9-0.4 0.2 1.5 0.4 2.9 0.6 4.4 1-0.1 2-0.3 2.9-0.4-1.2-5.3-2.6-10.5-4.3-15.6-0.5-1.5-3.1-1.4-2.9 0.4 0.2 3 0.7 5.7 1.6 8.6 0.6 1.9 3.2 1.1 2.9-0.8-1.4-7.5-6.7-14.2-10.5-20.6-1-1.7-3.6-0.1-2.6 1.5 3.7 6.2 8.9 12.7 10.2 19.9 1-0.3 1.9-0.5 2.9-0.8-0.8-2.6-1.3-5.1-1.5-7.8-1 0.1-2 0.3-2.9 0.4 1.7 5.1 3.1 10.3 4.3 15.6 0.4 1.6 3.2 1.3 2.9-0.4-0.2-1.5-0.4-2.9-0.6-4.4s-2.6-2.2-2.9-0.4c-1 5-1.6 10.1-1.8 15.2 1-0.1 2-0.3 2.9-0.4v-1.1c-1-0.3-1.9-0.5-2.9-0.8-1.4 6.3-3.2 12.5-5.7 18.5-0.7 1.7 1.8 2.4 2.7 1.2 1.5-2 2.9-4 4.4-6-0.9-0.4-1.8-0.8-2.7-1.2-1.6 7.2-2.8 14.5-3.6 21.9-0.1 1.9 2.9 1.9 3.1 0z"/>
		<path class="st0" d="m529.6 253.6c-0.7-6 1.5-11.5 6.3-15.1 1.5-1.2-0.6-3.3-2.1-2.1-5.3 4.1-8 10.6-7.1 17.3 0.1 1.8 3.1 1.8 2.9-0.1z"/>
		<path class="st0" d="m657.8 149.9c0.6-9.3 1-18.6 1.8-27.8 0.8-8.7 2.4-17.6 8.6-24.2 1.3-1.4-0.8-3.5-2.1-2.1-5.7 6-8 13.6-9 21.7-1.4 10.7-1.6 21.7-2.3 32.5-0.1 1.8 2.9 1.8 3-0.1z"/>
		<path class="st0" d="m740.6 207.1c9.8-12.3 20.5-24.3 29.3-37.4 8.4-12.5 13.6-26.8 18.7-40.9 0.7-1.8-2.2-2.6-2.9-0.8-5 13.9-10.1 27.9-18.4 40.2-8.7 12.9-19.1 24.7-28.8 36.8-1.2 1.5 0.9 3.7 2.1 2.1z"/>
		<path class="st0" d="m668.4 100.2c10.1-2.8 20.5-4.3 31-3.7 10.1 0.6 19.2 4.3 28.5 8 19.3 7.6 38.5 15.3 57.8 22.9 1.8 0.7 2.6-2.2 0.8-2.9-20.5-8.1-40.9-16.3-61.4-24.4-8.9-3.5-17.7-6.4-27.4-6.7-10.2-0.3-20.3 1.1-30.1 3.9-1.9 0.5-1.1 3.4 0.8 2.9z"/>
		<path class="st0" d="m653.7 151.3c6.2 6.6 13.9 11.2 21.7 15.6 8.1 4.6 15.7 9.7 23.1 15.2 14.3 10.6 28.3 21.9 45.3 27.7 1.8 0.6 2.6-2.3 0.8-2.9-16.8-5.7-30.6-17-44.6-27.4-7-5.2-14.1-10-21.7-14.4-8.1-4.6-16.1-9.1-22.5-16-1.3-1.3-3.4 0.8-2.1 2.2z"/>
		<path class="st0" d="m770.3 257.6c6.1-5.8 10.6-12.8 15.5-19.6 5-7 10.5-13.6 16.4-19.9 5.9-6.4 12.3-12.4 19-18 3.4-2.9 6.9-5.9 10.7-8.3 6.1-3.9 10.4-1.1 15.3 3.1 7.3 6.1 11.1 13.5 9.5 23.2-1.4 8.2-5 15.8-6.3 24-1.3 8.6 0.3 17.4-1.2 26-1.4 8.4-8.2 18.5-18 16.2-1.9-0.4-2.7 2.5-0.8 2.9 12.4 2.9 20.7-9.7 22-20.5 1-9-0.5-18.1 1.5-27 1.7-7.6 4.9-14.8 6-22.5 0.9-6.7-0.4-13.1-4.7-18.5-3.4-4.3-9.6-10.4-15.1-11.8-6.4-1.7-12.3 4.3-16.9 8-6.4 5.1-12.4 10.5-18.2 16.3-6.4 6.5-12.5 13.4-18 20.7-6.2 8-11.4 16.8-18.7 23.9-1.5 1.1 0.6 3.2 2 1.8z"/>
		<path class="st0" d="m824 281.2c0.2-7.2 0.5-14.4 0.7-21.6 0-1.1-1.3-1.9-2.3-1.3-5.2 3.6-10.5 7.2-15.7 10.7-3 2-5.8 3.7-9.5 3.6-3.1 0-6.3 0-9.4 0.3-2.3 0.2-4.6 0.5-6.9 0.8-1.6 0.2-3.1 0.5-4.6 0.8-2.5 0.5-3.5 0.7-4.8-2-2.7-5.5-2-14-1.2-19.8 0.3-1.9-2.6-2.7-2.9-0.8-1 7.1-0.9 14.4 1.2 21.4 1.8 6.2 4.7 4.8 10.3 3.7 4.5-0.8 9.1-1.3 13.6-1.5 3.6-0.1 7.4 0.7 10.8-0.9 7.3-3.4 14.1-9.3 20.7-13.9-0.8-0.4-1.5-0.9-2.3-1.3-0.2 7.2-0.5 14.4-0.7 21.6-0.1 2.1 2.9 2.1 3 0.2z"/>
		<path class="st0" d="m847.7 262.2c-0.1 12.1-1.2 25.5-5.7 36.9-1.5 3.7-3.9 4.2-7.5 4.1-1.3 0-5.6 0.1-6.1-1.2 0 0 0.6-0.5 0.6-0.7-0.2-1.1 0.2-2.2-0.1-3.4-0.8-3.1-1.9-6.1-2.8-9.2-0.6-1.8-3.5-1.1-2.9 0.8 0.3 0.9 3.3 10.1 3.1 10.2-0.5 0.2-0.8 0.8-0.7 1.3 0.1 4.1 3.6 5.6 7.3 5.5 5.2-0.2 8.4 1 11-4.1 2.8-5.6 3.9-12.4 5-18.5 1.2-7.2 1.8-14.4 1.9-21.6-0.1-2.1-3.1-2.1-3.1-0.1z"/>
		<path class="st0" d="m828.2 284h-1.2c-0.8 0-1.5 0.7-1.5 1.5s0.7 1.5 1.5 1.5h1.2c0.8 0 1.5-0.7 1.5-1.5s-0.6-1.5-1.5-1.5z"/>
		<path class="st0" d="m821.6 281.5c-4.6-1.3-9.1 0.5-12 4.2-4.3 5.5-3 13.1-0.6 19.1 2.1 5.3 5.5 13.2 10.7 16.2 2.6 1.5 5.5 1.5 8.4 1.4 5.2-0.1 10 0.5 14.9 2.1 1.8 0.6 2.6-2.3 0.8-2.9-4.3-1.5-8.7-2.3-13.3-2.3-2.4 0-5.2 0.4-7.5-0.3-3.5-1.1-5.5-4.6-7.3-7.5-2.7-4.6-5.3-9.7-5.8-15-0.6-6.3 3.3-14.4 10.8-12.2 2 0.7 2.8-2.2 0.9-2.8z"/>
		<path class="st0" d="m855.4 249.7c5.6-16.1 11.1-32.2 16.7-48.3 2.3-6.6 5.3-16.3 13.8-16.7 8.3-0.4 15.6 8 21.2 13 11.6 10.2 25 21 28.3 37 1.9 9.1-0.8 17.8-7 24.7-5.5 6.1-13.3 11.8-21.9 10.9-9.3-1-18-7.9-25.8-12.6-8.5-5.1-17-10.1-25.4-15.2-1.7-1-3.2 1.6-1.5 2.6 9.6 5.7 19.2 11.5 28.8 17.2 7.5 4.5 15.5 10.4 24.5 11.1 15 1.1 30.2-15.2 31.7-29.4 2-18.5-12-32.9-24.7-44.2-9.2-8.2-26.4-27.6-38.5-12.8-5.9 7.2-7.9 18-10.9 26.5-4.1 11.8-8.1 23.5-12.2 35.3-0.6 1.9 2.3 2.7 2.9 0.9z"/>
		<path class="st0" d="m897 270.9c-3.6 15-7.6 30-10.9 45.1-0.9 4.1-1.4 8.3 2.2 11.2 5.3 4.3 12.9 7.1 18.9 10.4 1.7 0.9 3.2-1.7 1.5-2.6-5.4-2.9-10.7-5.8-16.1-8.7-7.1-3.9-2.9-12.8-1.4-18.9 2.9-11.9 5.7-23.8 8.6-35.7 0.6-1.8-2.3-2.6-2.8-0.8z"/>
		<path class="st0" d="m510.1 237.5c0.6 3.2 1.6 6.2 3.1 9 0.9 1.7 3.5 0.2 2.6-1.5-1.3-2.6-2.2-5.4-2.8-8.3-0.3-1.9-3.2-1.1-2.9 0.8z"/>
		<path class="st0" d="m568.3 206.3c-6.7 1-13.5 1.3-20.3 1-5.2-0.2-10.4-1.2-15.6-1.2-7.7 0-14.1 2.8-18.4 9.3-1.1 1.6 1.5 3.1 2.6 1.5 5.4-8.2 14-8.3 22.9-7.4 9.9 1 19.7 1 29.6-0.4 1.9-0.2 1.1-3.1-0.8-2.8z"/>
		<path class="st0" d="m475.4 341.4c0.5-12 6.3-22.6 11.9-32.9 5.1-9.3 10.5-18.5 14.7-28.4 1.7-4 9-18.9 3.4-22.3-1.5-0.9-3.1-0.2-4.6 0.2-2.8 0.7-5.5 1.6-8.3 2.2-3.9 0.8-16.8 4.7-19.1-0.6-0.8-1.8-3.3-0.2-2.6 1.5 2.9 6.8 14.3 3.5 19.7 2.5 3.1-0.6 6.2-1.3 9.3-2.2 2-0.6 2.1-1.2 3.5 0.4 1.5 1.7 0.4 4 0 6-1.4 5.8-3.9 11.4-6.5 16.8-8.7 18.2-23.4 36-24.3 56.9-0.2 1.8 2.8 1.8 2.9-0.1z"/>
		<path class="st0" d="m472.7 340.4c-4.9-5.8-12.3-8.3-19.7-6.8-1.9 0.4-1.1 3.3 0.8 2.9 6.4-1.3 12.6 1 16.8 6 1.2 1.5 3.3-0.6 2.1-2.1z"/>
		<path class="st0" d="m418.6 375.7l1.2-0.6c0.7-0.4 0.9-1.4 0.5-2.1s-1.3-0.9-2.1-0.5l-1.2 0.6c-0.7 0.4-0.9 1.4-0.5 2.1s1.3 0.9 2.1 0.5z"/>
		<path class="st0" d="m417.6 360.3c2.2 8 4.4 16.2 4.9 24.6 0.5 9-1.7 16.5-5.9 24.4-3 5.7-5.7 11.3-5.5 17.9 0.2 5.9 2.3 11.6 5.6 16.5 18.2 27.1 56 16.9 83 18.5 16.8 1 33.1 6 50 6.9 9.2 0.5 18.3 0.4 27.3 2.1 8.2 1.6 16.2 4.1 24.1 7 8 3 15.8 6.3 23.7 9.5 7.8 3.2 15.9 6.2 23.2 10.5 6.7 4 12.7 9.2 19.3 13.5 6 4 12.4 7.4 19.1 10.3 29.1 12.5 62.4 14 92.4 3.7 1.8-0.6 1-3.5-0.8-2.9-27.1 9.3-56.8 8.9-83.7-0.9-14.2-5.2-25.9-13.2-38.1-21.9-12.4-8.9-27.2-13.9-41.2-19.6-14.2-5.8-28.6-11.3-43.9-13.2-8.4-1-16.8-0.7-25.2-1.4-8.6-0.7-17-2.4-25.4-3.9-7.5-1.3-15-2.5-22.7-2.9-8.4-0.4-16.9 0.3-25.3 0.6-15.4 0.6-32.4 0.2-45.4-9.4-6.4-4.8-11.4-12-12.7-20-1.6-9.4 3.7-16.6 7.4-24.7 6.8-14.9 2.8-31.1-1.3-46.1-0.5-1.7-3.4-0.9-2.9 0.9z"/>
		<path class="st0" d="m778.9 524.5c12.1-5.4 23.1-12.9 32.6-22.2 9.4-9.2 16-20.3 23.4-31.1 3.8-5.6 8-11 13-15.6 4.8-4.3 10.9-6.8 15.6-11.2 4.6-4.3 5.5-10.2 7.6-15.9 2.9-7.9 7.2-15 12.6-21.4 1.2-1.5-0.9-3.6-2.1-2.1-4.5 5.3-8.4 11.2-11.3 17.6-2.7 5.9-3.4 13.7-7.9 18.6-4.3 4.7-10.7 7.2-15.5 11.3-4.6 3.9-8.4 8.5-11.9 13.4-8 10.9-14.4 22.8-23.9 32.6-9.6 9.9-21 17.8-33.6 23.4-1.9 0.8-0.4 3.3 1.4 2.6z"/>
		<path class="st0" d="m882.9 409.4c12.2-7.1 20.4-20.4 28.2-31.7 4.3-6.3 3.8-11.4 1.7-18.5-2.6-8.6-4.3-17.3-5.1-26.3-0.2-1.9-3.2-1.9-3 0 0.6 6.8 1.6 13.5 3.2 20.1 0.9 3.5 2.2 7 3 10.5 1.2 4.8 0.3 8.6-2.4 12.6-7.5 11-15.4 23.9-27.1 30.7-1.7 1-0.2 3.6 1.5 2.6z"/>
		<path class="st0" d="m531.5 322.9c1 9.2 5.3 17.2 9.7 25.3 3.9 7.1 8.2 14.3 13.8 20.3 5.2 5.6 11.6 10 19.1 11.5 5 1 10.1 1 15 2.2 5.1 1.2 10 3 15.1 4.6 9.8 2.9 19.8 3.4 29.9 3.8 11.9 0.4 23.9 0.9 35.8 1.3 5.1 0.2 10.3 0.2 15.3 0.6 5.6 0.4 10.5 2.7 15.9 4.1 10.1 2.6 20.7 2.6 30.7 5.6 11.4 3.4 22.2 8.8 33.5 12.4 11.7 3.7 23.7 6.6 35.8 8.6 0.6 0.1 1.4-0.1 1.7-0.7 3.9-8.2 5-16.8 3.4-25.7-0.3-1.9-3.2-1.1-2.9 0.8 1.4 8.1 0.3 16-3.1 23.4 0.6-0.2 1.1-0.5 1.7-0.7-20.1-3.4-39.4-9.2-58.2-16.9-9.4-3.9-18.6-6-28.6-7.4-4.7-0.6-9.4-1.3-14-2.6-4.2-1.1-8.1-3-12.4-3.6-10.3-1.6-21.2-1-31.7-1.4-10.8-0.4-21.6-0.6-32.4-1.2-10.5-0.6-19.7-3.5-29.6-6.5-9.3-2.8-19.8-1.8-28.4-6.6-8.2-4.6-14-12.5-18.8-20.3-5.7-9.3-12.1-19.7-13.3-30.7-0.2-2.1-3.2-2.1-3-0.2z"/>
		<path class="st0" d="m789.6 500.2c4.8-8.2 9.3-16.5 13.4-25 3.6-7.4 8.6-15.5 7.7-24.1-0.5-4.3-2.3-8.4-2-12.8 0.3-5.5 3.5-10.7 5.6-15.7 4.1-9.3 8.2-18.6 12.3-27.8 0.8-1.8-1.8-3.3-2.6-1.5-4 9-7.9 18-11.9 26.9-3.2 7.3-7.4 14.5-6.1 22.8 0.9 5.5 2.5 10.1 1 15.7-1.3 4.9-4 9.6-6.2 14.2-4.3 8.8-8.9 17.4-13.8 25.8-1 1.7 1.6 3.2 2.6 1.5z"/>
		<path class="st0" d="m784.4 501.8c21-7.4 31.9-28.9 42.2-47.1 6.5-11.6 11.6-23.5 16.7-35.8 5.6-13.6 13.3-26.1 21.2-38.5 1-1.6-1.6-3.1-2.6-1.5-6.9 10.9-13.8 21.9-19.1 33.8-5.4 11.9-9.8 24.1-16 35.6-10.2 18.8-21.5 43.1-43.1 50.6-1.9 0.7-1.1 3.6 0.7 2.9z"/>
		<path class="st0" d="m578.9 342.3c-5.2-7.1-7.3-16.1-4.8-24.7 2.4-8.3 8.3-15.1 12.5-22.5 3.6-6.3 12.9-20.1 20.5-10 3.1 4.1 5.7 7.9 11.3 5.1 2.9-1.4 5.4-4.4 7.6-6.6 2.8-2.9 5.6-5.9 7.8-9.2 3.3-4.9 5.4-10.5 6.2-16.4 1.7-12.9-2.7-26.1-12.1-35-1.4-1.3-3.5 0.8-2.1 2.1 10.7 10.2 14.5 26.6 9.3 40.5-3 7.9-9.4 15.1-15.9 20.4-3.8 3.1-6.1 2.1-8.8-1.4-0.6-0.8-1.1-1.7-1.7-2.4-1.7-2-3.8-3.1-6.5-3.4-5.5-0.6-10.3 2.8-13.5 7-4.6 6-8.2 13.1-12.1 19.5-7.6 12.2-9.2 26.3-0.3 38.4 1.1 1.6 3.7 0.2 2.6-1.4z"/>
		<path class="st0" d="m580 236.8c-2.3 6.3-8.6 30.2 4.3 28.7 8-0.9 16.1-3.4 24-5.1l26.4-5.7c1.9-0.4 1.1-3.3-0.8-2.9-12.2 2.6-24.5 5.3-36.7 7.9-2.8 0.6-5.7 1.2-8.5 1.8-2.7 0.6-3.4 1-6.1 0-3.1-1.1-2.6-2.3-2.8-5.2-0.4-6.4 0.8-12.7 3-18.8 0.8-1.7-2.1-2.5-2.8-0.7z"/>
		<path class="st0" d="m576.4 237.4c-5.2 8.6-12.5 15.7-21.5 20.3-7.4 3.8-17.2 3.9-23.3 9.7-1.4 1.3 0.7 3.5 2.1 2.1 4-3.8 9.7-4.2 14.8-5.9 4.1-1.4 8.1-3.3 11.8-5.6 7.7-4.8 14-11.4 18.7-19.2 1-1.6-1.6-3.1-2.6-1.4z"/>
		<path class="st0" d="m906.2 335.7c3.9-15 7.8-30.1 11.7-45.1h-2.9c1 4.9 2.9 9.3 5.9 13.4 0.6 0.9 1.6 0.9 2.4 0.3 23.5-18.5 45.2-51.9 36.9-82.9-2.1-8-5.8-15.6-9-23.2-3.5-8-6.9-16.1-10.5-24.1-7.2-16.3-14.8-32.4-23.1-48.1-15.9-30-34.8-60.5-61.2-82.4-24.4-20.2-54.4-32.8-85.4-38.9-40.4-7.9-81.9-4.8-122.1 2.6-1.9 0.4-1.1 3.2 0.8 2.9 65-12.1 137-11.7 193.6 27.3 27.6 19.1 47.2 47 63.7 75.7 16.4 28.5 29.6 58.7 42.6 88.9 4.1 9.4 8.5 19 9.3 29.4 0.7 10.3-2.1 20.7-6.2 30.1-7 15.9-17.9 29.7-31.5 40.5l2.4 0.3c-2.8-3.9-4.6-8-5.6-12.7-0.3-1.5-2.5-1.4-2.9 0-3.9 15-7.8 30.1-11.7 45.1-0.6 2 2.3 2.8 2.8 0.9z"/>
		<path class="st0" d="m612.7 148.8c-7.1-10.3-12.3-22.5-7.7-35 4.3-11.7 12.9-22.6 21.2-31.7 1.3-1.4-0.8-3.6-2.1-2.1-8.9 9.9-18.5 21.8-22.5 34.7-3.9 12.7 1.4 25.3 8.6 35.7 1 1.5 3.6 0 2.5-1.6z"/>
		<path class="st0" d="m350.6 373.2c5.4 1.3 9 6.3 13 9.8 2.3 1.9 5.3 5.3 8.6 5.2 7.6-0.2 9.4-12.7 9.6-18.1 0.1-2.9-0.7-8.1 2.8-8.4 2.6-0.2 4 2.5 6.1 4 2.6 1.9 5.8 3.5 9.1 3.4 7.8-0.1 11.3-7.6 13.7-13.9 0.7-1.8-2.2-2.6-2.9-0.8-1.6 4.2-3.7 9.7-8.4 11.3-4.9 1.6-9.6-1.9-12.8-5.2-1.5-1.5-2.8-3.5-5.2-3.3-2.3 0.2-3.8 2.7-4.5 4.6-1.9 5.1 0.7 25.8-9.6 22.5-3.7-1.2-7.7-6.6-10.5-9.3-2.5-2.3-4.9-4-8.2-4.8-1.9-0.4-2.7 2.5-0.8 3z"/>
		<path class="st0" d="m349.3 373.4c-2.6 2.9-6.7 3-9.7 5.2-2.5 1.9-3.7 4.8-4.2 7.8-1.1 7 0.1 16 2.5 22.7 1.1 3 2.7 5.9 5 8.3 4 4 8.2 5.1 7.7 12-0.5 6.4 3.6 11.4 10.1 12 1.9 0.2 1.9-2.8 0-3-6.8-0.6-7-5.8-6.8-11 0.1-2.2-0.2-3.9-1.5-5.7-1.7-2.3-4.2-3.6-6.3-5.4-2.8-2.5-4.6-5.7-5.7-9.2-1.8-5.8-2.7-12.7-2.2-18.7 0.4-4.9 2.8-7.3 7.3-9.1 2.2-0.9 4.2-1.7 5.9-3.6 1.3-1.6-0.8-3.8-2.1-2.3z"/>
		<path class="st0" d="m364.8 439c-0.1-0.6-0.3-1.2-0.4-1.8-0.3-1.4-2.6-1.5-2.9 0-0.3 1.6-0.5 3.5-1 5 0 1.7-0.8 2.9-2.4 3.7-0.4 0-0.9 0.1-1.3 0.1-1.4 0.7-2.5 0.8-3.6 2.1-2.3 2.8-2 6.9-0.2 9.8 2.8 4.4 8.4 6.5 12.6 9.2 6.9 4.4 13.3 9.5 19.7 14.6 1.5 1.2 3.6-0.9 2.1-2.1-8.8-7-17.8-13.2-27.3-19.2-2.4-1.5-5.7-3.8-5.6-7.1 0.1-3.4 3.2-3.9 5.6-4.8 3.7-1.5 3.6-7.3 4.3-10.6h-2.9c0.1 0.6 0.3 1.2 0.4 1.8 0.4 2 3.3 1.2 2.9-0.7z"/>
		<path class="st0" d="m384.8 481.3c3.8 0.4 5.7-2.6 6.7-5.9 0.9-2.8 0.9-5.3 4.4-6.4 2.1-0.7 4.3 0 6 1.2 2.9 2 4.7 5.9 4.7 9.4 0 1.4-0.4 4.1-1.6 5-1.3 1-4.1 0.1-5.4 0.1-1.7 0-2.9-0.1-4.4 1-2.5 1.8-3.3 5.4-2.6 8.3 2.5 9.2 17.6 12.4 25.3 14.7 12.5 3.8 25.4 5.8 38.5 6.4 1.9 0.1 1.9-2.9 0-3-14-0.6-27.9-3-41.2-7.4-5.8-1.9-14-3.8-18.1-8.7-0.5-1-1.1-1.9-1.6-2.9-0.8-2.4 0-3.7 2.4-4 2.6-1.3 2.5-0.9 4.8-0.8 1.4 0 2.5-0.2 3.7-1 6.4-4.4 2.7-15.7-2.4-19.4-2.7-2-6.2-2.7-9.4-1.5-1.4 0.5-2.5 1.2-3.5 2.3-1.9 2.2-2.6 9.9-6.3 9.6-1.9-0.2-1.9 2.8 0 3z"/>
		<path class="st0" d="m655.8 559.1c10.2-10.5 20.8-20.6 31.7-30.2 1.4-1.3-0.7-3.4-2.1-2.1-11 9.7-21.5 19.8-31.7 30.2-1.4 1.4 0.8 3.5 2.1 2.1z"/>
		<path class="st0" d="m653.8 558c-6-5.1-2.1-18.9-0.8-25.3 1.6-8.2 4-16.2 7.1-24 0.7-1.8-2.2-2.6-2.9-0.8-4 10.1-6.9 20.5-8.4 31.3-0.9 6.6-3.1 16 2.8 20.9 1.6 1.3 3.7-0.8 2.2-2.1z"/>
		<path class="st0" d="m443.7 512c5.1 11.2 19.3 5.1 27.8 2.6 14.1-4.1 28.5-7.4 43.1-8.5 3.7-0.3 8.2-1.1 11 1.7 2 1.9 2.6 4.7 3.3 7.4 1.1 4 2 8 5 11s7.3 4.3 11.4 5c5.2 0.8 13.9-0.7 17.5 3.7 1.2 1.5 3.3-0.6 2.1-2.1-2.7-3.4-6.7-3.6-10.8-3.8-5.5-0.3-11.7-0.3-16.5-3.4-7.6-5.1-4-18.1-12.9-21.8-5.2-2.2-12.4-0.4-17.8 0.2-6.4 0.8-12.7 1.9-19 3.3-6.5 1.5-12.9 3.2-19.2 5.1-6.9 2.1-18.5 7.3-22.6-1.8-0.6-1.9-3.2-0.3-2.4 1.4z"/>
		<path class="st0" d="m550.3 533.3c-12.6 1.4-25.3 2.7-37.9 4.1-11 1.2-22.3 2.5-32.2 7.7-4.8 2.6-9.5 5.9-13.7 9.3-3.3 2.7-6.4 5.9-7 10.3-1 6.5 5.2 12.7 11.5 8.8 1.6-1 0.1-3.6-1.5-2.6-5.2 3.2-7.8-3.4-6.6-7.4 0.8-2.4 2.4-4.2 4.3-5.9 2.8-2.6 6.2-4.8 9.4-6.9 7.1-4.7 14.8-7.3 23.1-8.8 16.7-2.9 33.8-4 50.7-5.8 1.8 0 1.9-3-0.1-2.8z"/>
		<path class="st0" d="m522.1 546.5c-6.4 0.6-12.6 1.9-18.8 3.6-4.4 1.2-9.8 2.2-12.7 6.2-5.4 7.7 2.1 16.3 10.4 14.8 1.9-0.4 1.1-3.3-0.8-2.9-6.5 1.2-11.2-6.2-6.2-11.2 2.3-2.3 6.2-3 9.3-3.8 6.2-1.6 12.5-3 18.9-3.7 1.8-0.2 1.8-3.2-0.1-3z"/>
		<path class="st0" d="m525.5 551.9c7.4-2.9 14.8 1.4 18.7 7.7 3.6 5.8 4.5 13 5.5 19.7 0.3 1.9 3.2 1.1 2.9-0.8-1.2-8.4-2.6-17.8-8.7-24.3-4.9-5.2-12.4-7.9-19.2-5.2-1.8 0.7-1 3.6 0.8 2.9z"/>
		<path class="st0" d="m472.3 259.8c-5.4 8.9-13.2 6.2-21.8 7.3-5.7 0.7-10.7 3.6-14.5 7.9-1.3 1.4 0.8 3.6 2.1 2.1 3-3.4 6.7-5.9 11.2-6.8 4.3-0.9 8.6 0.3 12.9-0.3 5.5-0.8 9.9-4 12.7-8.7 1-1.7-1.6-3.2-2.6-1.5z"/>
		<path class="st0" d="m369.9 223c0.8 13.2 1.6 26.9 7.7 38.9 6 11.8 16.8 17 26.9 24.7 1.5 1.2 3-1.4 1.5-2.6-9.6-7.4-20-12.3-25.8-23.6-5.9-11.5-6.6-24.7-7.3-37.4-0.1-1.9-3.1-1.9-3 0z"/>
		<path class="st0" d="m400.1 299.7c1 6.8 8.7-0.4 10.6-2.4 1.2-1.3 2.4-2.6 3.4-4 0.9-1.2 1.8-3.3 3.2-4 2-1 4.4 0.3 5.1-2.7 0.5-1.9-2.4-2.7-2.9-0.8 0 0-3.2 0.2-3.9 0.7-1.2 0.8-1.9 2.2-2.7 3.4-1.3 1.9-2.8 3.7-4.3 5.3-0.5 0.6-5.4 5.1-5.6 3.7-0.3-1.9-3.2-1-2.9 0.8z"/>
		<path class="st0" d="m419.4 314.1c-2.4 13.6-2.3 27.3 0.2 40.8 0.3 1.9 3.2 1.1 2.9-0.8-2.4-13-2.4-26.2-0.2-39.2 0.3-1.9-2.6-2.7-2.9-0.8z"/>
		<path class="st0" d="m379.8 365.3c-4-9.5-8.1-19-12.1-28.5-0.8-1.8-3.3-0.2-2.6 1.5 4 9.5 8.1 19 12.1 28.5 0.7 1.8 3.3 0.3 2.6-1.5z"/>
		<path class="st0" d="m346.9 370.2c-2-9.9-1.9-19.8 0.1-29.7 0.4-1.9-2.5-2.7-2.9-0.8-2.1 10.4-2.2 20.9-0.1 31.3 0.3 1.9 3.2 1.1 2.9-0.8z"/>
		<path class="st0" d="m680.9 408.7c18 14.7 21.5 38.6 29.1 59.2 0.7 1.8 3.6 1 2.9-0.8-7.8-21.1-11.5-45.5-29.8-60.5-1.5-1.3-3.7 0.9-2.2 2.1z"/>
		<path class="st0" d="m677 407.6c7.9 6.3 16.8 8.3 26.6 10.3 11.3 2.3 22.7 4.5 34 6.8 1.9 0.4 2.7-2.5 0.8-2.9-10.1-2-20.1-4-30.2-6-10.3-2.1-20.6-3.5-29-10.2-1.6-1.3-3.7 0.8-2.2 2z"/>
		<path class="st0" d="m577.4 339.9c2.3 5.4 8.8 1.7 9.2-2.9 0.2-2.5-3.5-9.8-1.5-11 1.4-0.9 1.7 0.2 3 1.3l2.7 2.4c2 1.8 4 3.6 6 5.3 1.4 1.3 3.6-0.8 2.1-2.1l-9.9-8.7c-1.4-1.2-3.3-3.7-5.5-2.8-2 0.9-2.4 3.9-2.3 5.8 0.1 1.6 0.6 3 1.1 4.5 0.4 1 0.8 2.1 1 3.2 0.2 0.6 0.2 1.1 0.1 1.7 0.2 1.7-1 2.3-3.6 1.8-0.6-1.7-3.2-0.2-2.4 1.5z"/>
		<path class="st0" d="m596.4 330.9c-1-4.7 1.6-9.7 4.8-13.1 1.4-1.5 3.3-3.2 5.5-3.1 4.6 0.1 5.1 4.7 5.2 7.8 0.6 9.5-7.1 12-15 12.8-1.9 0.2-1.9 3.2 0 3 5.6-0.6 12.2-1.5 15.7-6.5 3.2-4.4 3.3-12.5 0.3-17-2.9-4.5-8.9-3.5-12.5-0.4-4.9 4.2-8.3 10.9-7 17.3 0.5 1.8 3.4 1 3-0.8z"/>
		<path class="st0" d="m614.8 335.7c0.4-4.6 1.6-8.9 3.7-13 1-2.1 2.4-4.8 4.2-6.4 3.1-2.8 6.1 0 7.5 3 5.9 12.5-9.7 15.6-18.3 16-1.9 0.1-1.9 3.1 0 3 6.9-0.3 14.5-0.9 19.4-6.5 4.5-5.1 3.6-11.5-0.1-16.8-9.7-14.1-18.7 13.2-19.4 20.6-0.2 2 2.8 2 3 0.1z"/>
		<path class="st0" d="m632.5 328.4c0.3-5.4 1.8-10.7 4.8-15.3 1.9-2.9 3.9-5.5 7.5-4.3 2.2 0.7 5.1 2.6 6.6 4.3 3.3 3.9 2.3 11.8-0.3 16-3.1 4.9-12.7 1.3-17.2 0-1.9-0.5-2.7 2.4-0.8 2.9 4.9 1.3 16.6 5.5 20.1-0.2 3.2-5.2 5-14.3 1.3-19.6-3.2-4.5-10.7-9.2-15.8-5.2-6.1 4.7-8.6 14.2-9 21.5-0.3 1.8 2.7 1.8 2.8-0.1z"/>
		<path class="st0" d="m652.8 331c0.9-6.3 3.1-18.5 9.7-21.5 4.4-2 7.3 2.2 7.2 5.6 0 2.3-1.1 4.4-2.3 6.3-1.3 2.1-9.7 12.6-12.8 8.3-1.1-1.5-3.7-0.1-2.6 1.5 7.3 10.1 24.1-11.7 19.8-20.6-2.4-4.9-7.9-6.1-12.1-2.8-6.2 4.9-8.6 15-9.7 22.4-0.4 1.8 2.5 2.7 2.8 0.8z"/>
		<path class="st0" d="m687.3 332.5c3.9-5.1 5.5-13.5 1.5-19.1-3.6-4.9-12.2-2.1-16.7 0-6.4 3-8.7 9.2-6.5 15.9 2.2 6.8 15.8 2.5 20.4 1 1.8-0.6 1-3.5-0.8-2.9-3.9 1.3-13.6 4.5-16.9 0.6-1.6-2-0.3-7.2 1-8.9 1.4-1.8 3.4-2.9 5.5-3.6 4-1.5 9.8-3.3 12.3 1.3 2.4 4.4 0.4 10.4-2.4 14.1-1.2 1.6 1.4 3.1 2.6 1.6z"/>
		<path class="st0" d="m690 329.2c1.4-2.8 2.9-5.6 5.1-7.8 1.3-1.3 2.9-2.4 4.7-2.7 3.2-0.6 4.3 2.6 4.5 5.1 0.3 3 0.4 7.1-2.2 9.2-1.9 1.6-4.4 1.4-6.7 0.8-0.8-0.2-5.2-1.6-5.3-2.4-0.2-1.9-3.3-1.9-3 0 0.6 4.6 9.8 6.7 13.6 5.7 5.5-1.4 6.8-7.3 6.6-12.2-0.3-5.4-2-10.3-8.4-9-5.8 1.2-9.1 7.1-11.6 11.9-0.8 1.6 1.8 3.1 2.7 1.4z"/>
		<path class="st0" d="m707.5 328.4c1.9 0 1.9-3 0-3s-1.9 3 0 3z"/>
		<path class="st0" d="m707.2 325.8c1.9-3.8 4.5-7.1 8-9.5 0.8-0.6 1.7-1.1 2.5-1.5 1.8-0.8 2.7-0.3 2.9 1.3 1.3 1.7 1.6 5.4 1.7 7.3 0.2 4-0.5 8.4-2.9 11.7-3.4 4.9-11 6.9-14.5 0.9-1-1.7-3.6-0.2-2.6 1.5 3 5.1 9 6.6 14.2 3.9 6-3.1 8.7-10 8.7-16.4 0-3.7-0.8-14.2-6.2-14-6.1 0.2-12.2 8.4-14.6 13.2-0.7 1.8 1.9 3.4 2.8 1.6z"/>
		<path class="st0" d="m723.3 328.8c2.5-3.2 5.3-6.2 8.4-8.9 2.6-2.2 6.4-5.2 8 0.2 0.7 2.2-0.1 4.9-0.4 7.1-0.8 4.8-2.1 10.1-6.4 13-0.8 0.4-1.5 0.7-2.3 1.1-2.7 0.3-4-0.6-3.8-2.9-1-2.1-1.1-5.4-1.6-7.7-0.4-1.9-3.3-1.1-2.9 0.8 1.2 5.8 0.8 15.1 9.1 12.7 7.1-2.1 9.7-9.7 10.8-16.2 0.7-4.3 2.1-13.9-4.2-14.9-2.7-0.4-5.2 2-7 3.5-3.7 2.9-6.8 6.3-9.7 10-1.3 1.6 0.8 3.7 2 2.2z"/>
		<path class="st0" d="m745 328c1.3-3.2 3.3-6.8 6.4-8.6 4.3-2.5 9.1 0 10.3 4.6 1 3.7-0.8 7.8-3.4 10.5-3.1 3.3-10.2 5.6-11.7-0.7-0.4-1.9-3.3-1.1-2.9 0.8 1.3 5.5 7.2 7.4 12.1 5.3 5.6-2.4 9.8-9 9-15.1-0.6-5.1-5-9.7-10.4-9.5-6.4 0.3-10.2 6.7-12.4 11.9-0.6 1.8 2.3 2.5 3 0.8z"/>
		<path class="st0" d="m764.9 321.1c0.3 6.7 0.2 13.3-0.2 20-0.1 1.4 1.6 1.8 2.6 1.1 4.9-3.8 9.3-7.9 13.5-12.5 1.3-1.4-0.8-3.6-2.1-2.1-4.1 4.6-8.6 8.8-13.5 12.5 0.9 0.4 1.7 0.7 2.6 1.1 0.4-6.7 0.5-13.3 0.2-20-0.2-2-3.2-2-3.1-0.1z"/>
		<path class="st0" d="m780.3 327.3c-4.7 2.2-10 6.5-11.5 11.7-1.3 4.5 2 8.9 6.6 9.4 11.2 1.2 16.7-18 4.1-18.9-1.9-0.1-1.9 2.9 0 3 5.4 0.4 5.1 6.8 2.5 9.9-2.4 2.8-7.8 4.8-10.1 0.5-2.8-5.2 6.2-11.3 9.9-13.1 1.8-0.7 0.2-3.3-1.5-2.5z"/>
		<path class="st0" d="m788.5 333.2c-4.6 11.9-6.6 27.5 9.1 31 3.9 0.9 8.4 2.1 12.3 2.3 1.6 0.1 2.7 0.3 3.9-1 1.8-1.9 1.5-5.9 1.8-8.3 0.8-5.1 1.5-10.3 2.3-15.4 0.3-1.9-2.6-2.7-2.9-0.8-0.8 5.5-1.6 10.9-2.4 16.4-0.2 1 0 4-0.7 4.8-1.1 1.3-3.3 0.8-4.8 0.7-2.6-0.2-5.4-1-8-1.5-14.6-3-11.9-16.8-7.7-27.5 0.7-1.7-2.2-2.5-2.9-0.7z"/>
		<path class="st0" d="m815.5 343.2c1 4.6 0.7 8.7-0.2 13.2-0.3 1.7-0.8 3.5-0.4 5.3 0.7 3.7 4 6.4 7.7 6.8 9.8 1.3 13.5-9.9 13-17.6-0.1-1.9-3.1-1.9-3 0 0.3 3.7 0 7.6-2.1 10.7-2.9 4.2-9.9 5.9-12 0.1-1.2-3.2 0.4-6.6 0.7-9.9 0.3-3.2-0.1-6.3-0.8-9.4-0.4-1.9-3.3-1.1-2.9 0.8z"/>
		<path class="st0" d="m832.7 352.7c-1 4.6-1.6 9.3-1.7 14.1-0.1 3.2 0.5 5.4 3.8 6.4 5.9 1.6 12.2-2.4 10.9-8.9-0.4-1.9-3.3-1.1-2.9 0.8 0.7 3.3-2.1 5.4-5 5.5-3.4 0.1-3.9-2.5-3.8-5.2 0.2-4 0.7-8 1.6-11.9 0.4-1.8-2.5-2.6-2.9-0.8z"/>
		<path class="st0" d="m644 228.3c5.2-7.5 9.1-15.9 11.4-24.7 1-3.9 1.7-8 2.1-12 0.5-5.2-0.5-11.3 2.8-15.8 1.1-1.6-1.5-3.1-2.6-1.5-2.2 3-2.6 6.3-2.8 10-0.2 5.2-0.5 10.2-1.6 15.3-2.1 9.8-6.2 19-11.9 27.3-1.1 1.5 1.5 3 2.6 1.4z"/>
		<path class="st0" d="m662.5 178.4c17.4 9.7 34.3 20.2 50.9 31.3 1.6 1.1 3.1-1.5 1.5-2.6-16.5-11.1-33.5-21.5-50.9-31.3-1.7-1-3.2 1.6-1.5 2.6z"/>
		<path class="st0" d="m725 215.8c-21.9 1.4-41.4 11.7-60.3 22.1-1.7 0.9-0.2 3.5 1.5 2.6 18.4-10.1 37.4-20.4 58.8-21.7 1.9-0.2 1.9-3.2 0-3z"/>
		<path class="st0" d="m822.9 162.3c3.3-9.5 11.2-16.9 15.8-25.8 4.4-8.5 7.4-17.8 8.7-27.3 2.9-20.8-2-41.6-6.8-61.8-0.4-1.9-3.3-1.1-2.9 0.8 4.9 20.7 10.1 42.3 6.2 63.6-1.7 9.5-5.1 18.7-9.9 27-4.5 7.7-11.1 14.2-14 22.7-0.6 1.8 2.3 2.6 2.9 0.8z"/>
		<path class="st0" d="m792.7 107.4c-16.6-9.2-33.8-17.8-49.8-28.1-15.9-10.2-28.1-24.3-29-44-0.1-1.9-3.1-1.9-3 0 0.8 18.3 10.8 32.6 25.3 43 17 12.3 36.7 21.4 55 31.6 1.6 1.1 3.1-1.5 1.5-2.5z"/>
		<path class="st0" d="m757.5 216.4c5.5-8 11.8-15.4 18.7-22.2 1.4-1.4-0.7-3.5-2.1-2.1-7.1 7-13.5 14.6-19.2 22.8-1.1 1.6 1.5 3.1 2.6 1.5z"/>
		<path class="st0" d="m918.7 165.5l2.7 23.4c0.2 1.9 3.2 1.9 3 0l-2.7-23.4c-0.3-1.9-3.3-1.9-3 0z"/>
		<path class="st0" d="m466.4 586.2c4.9 9.2-2.7 19.3-11.3 22.6-8.3 3.1-17.6 2.2-26.3 1.8-20.5-0.9-41-0.8-61.5 0.2-1.8 0.1-1.9 2.3-0.4 2.9 21.1 8.5 42.1 17.4 62.8 26.9 10 4.6 19.9 9.3 29.8 14.1 9.4 4.6 20 8.8 27.5 16.4 3.4 3.5 6.1 7.6 8.6 11.7 3.1 5.2 8.1 11.6 4.6 17.6-2.2 3.7-5.2 7-7.5 10.6-2.7 4.2-5.2 8.7-7.3 13.2-8.2 17.1-12.6 35.6-16.2 54.1-4.5 23.7-7.8 47.7-16.1 70.5-0.7 1.8 2.2 2.6 2.9 0.8 15.1-41.5 13.3-88 33.8-127.7 2.2-4.2 4.6-8.3 7.3-12.2 2.6-3.8 6.7-7.6 7.5-12.3 0.6-3.5-1.1-6.6-2.7-9.6-2.5-4.6-5.1-9.3-8.3-13.5-5.7-7.7-13.1-12.5-21.5-16.8-10.6-5.3-21.3-10.4-32-15.5-23.8-11.1-47.9-21.5-72.3-31.3-0.1 1-0.3 2-0.4 2.9 12.9-0.6 25.8-0.9 38.7-0.8 12.1 0.1 24.4 1.4 36.5 0.9 8.6-0.3 17.6-2.3 23.4-9.1 4.8-5.7 6.7-13.4 3.1-20.1-1-1.6-3.6 0-2.7 1.7z"/>
		<path class="st0" d="m612.4 679.3c-3.1 10.8-8.1 24.8-3.4 35.8 4.7 10.9 15.6 16.7 25.7 21.8l-0.3-2.4c-2.9 3-7.2 0.7-10.7 1-3.2 0.2-7.1 3-10.3 1.2-1.7-0.9-3.2 1.6-1.5 2.6 4.6 2.6 8.6-0.9 13.3-0.8 4.2 0.1 8 1.6 11.3-1.9 0.6-0.7 0.6-1.9-0.3-2.4-9.5-4.8-20-10.1-24.4-20.3s0.6-23.7 3.5-33.8c0.5-1.8-2.4-2.6-2.9-0.8z"/>
		<path class="st0" d="m607.9 741.2c-3 8.2-6.2 18.4-0.3 26.2 5.3 7.2 15.4 8.3 20.6 15.5 0.3-0.7 0.6-1.5 0.9-2.2-5.2 1.4-10 1.4-15.2 0-2.3-0.6-4.7-1.6-7.1-1.7-4.5-0.2-6.9 2.6-8 6.7-1.1 4-1.9 8.2-2.8 12.3-0.4 1.9-1.2 4.1-0.5 6 0.8 2.1 2.5 2.9 4.4 3.7 3.5 1.5 7.1 2.5 10.6 4.2 3.2 1.6 6.8 3.3 9.4 5.8 1.6 1.5 3.5 3.8 3.4 6.3-0.3 4.7-3.8 4.8-7.1 4.9-7.4 0.3-15.3-1.2-22.5-0.1-4.9 0.7-5 4.4-5 8.7 0.1 8.4 0.3 16.7 0.4 25.1 0 1.9 3 1.9 3 0-0.1-7.7-0.3-15.5-0.4-23.2 0-1.6-0.7-4.6 0.1-6 1.1-2 5-1.6 6.8-1.6 3.5 0 6.9 0 10.4 0.1 4.5 0 10.9 1.2 14.8-2 2.7-2.2 3.2-6.1 2-9.3-1.8-4.9-7.1-7.8-11.4-10.1-2.4-1.3-4.8-2.4-7.3-3.4-1.6-0.6-3.2-1.2-4.8-1.7-3.4-1.2-3.5-3.5-3.3-6.6 0.3-3.6 1.5-8.2 2.6-11.6 0.9-2.8 1.8-5.2 5.3-5.2 1.6 0 3.4 0.7 5 1.2 6.1 1.8 11.9 2 18.1 0.4 0.9-0.2 1.5-1.4 0.9-2.2-4.2-5.8-10.7-7.9-16.4-11.8-10-6.8-7.1-18-3.6-27.6 0.6-1.8-2.3-2.6-3-0.8z"/>
		<path class="st0" d="m624.3 630.6c8.2 26 30.5 43.2 53.3 56 13.9 7.8 28.5 14.4 42.2 22.6 14.1 8.4 27.2 18.3 41.1 27 13.7 8.5 28.3 15.6 42.6 23 14.6 7.5 29 15.3 43.8 22.3 14.4 6.8 29 11.8 44.7 14.8 15.8 3 31 6.3 46 12.2 16.3 6.5 32.9 14.3 48.1 23.2 7.4 4.3 13.5 9.7 19 16.2 4.8 5.8 9.4 11.6 15.5 16 1.6 1.1 3.1-1.5 1.5-2.6-10.8-7.9-17.1-20.3-28.1-28.2-12-8.6-26.4-14.7-39.8-20.9s-27.2-11.7-41.6-15.1c-15.8-3.6-31.8-5.5-47.1-11.2-15-5.6-29.2-13.3-43.4-20.6-14.4-7.4-28.9-14.7-43.2-22.3-13.9-7.5-27-16.2-40-25.1-13.2-8.9-26.8-16.7-41-24-28.3-14.6-60.4-31.5-70.7-64.1-0.6-1.8-3.5-1-2.9 0.8z"/>
		<path class="st0" d="m687.4 597.5c14.1 25.7 37.5 42.5 65.3 50.7 8.3 2.4 16.8 4.7 24.5 8.7 7 3.6 13.1 8.4 19 13.6 11.1 9.9 21.1 21 33.5 29.4 25.6 17.4 56.2 24.9 82.6 40.7 15 9 28.5 20.2 42.3 30.8 14 10.8 28.2 21.3 41.9 32.6 14 11.5 27.4 24.1 37.6 39.1 7 10.3 16.9 28.4 32.2 20.6 1.7-0.9 0.2-3.5-1.5-2.6-9.1 4.7-17.4-3.3-22.1-10.3-4-5.9-7.7-12-12.2-17.6-9.5-11.9-20.8-22.2-32.5-31.8-12.1-10-24.8-19.4-37.2-29-13.4-10.3-26.6-21.1-40.7-30.5-25.1-16.6-54.6-24.3-80.5-39.4-13.1-7.6-23.8-17.8-34.8-28.2-10-9.5-20.5-18.3-33.6-23.4-16.1-6.2-32.8-9.1-47.6-18.6-14.1-9.1-25.6-21.6-33.7-36.3-0.8-1.8-3.4-0.2-2.5 1.5z"/>
		<path class="st0" d="m625.5 631.3c7.7-12 15.8-24.5 28.3-32.2 5.7-3.5 11.8-4.5 17.8-7 3.7-1.6 6.4-4.5 10.8-2.4 4.5 2.2 5.3 7.8 6 12.3 0.3 1.9 3.2 1.1 2.9-0.8-1.1-6.4-3.4-15-11.3-15.5-3-0.2-5.3 1.5-7.9 2.9-4.3 2.3-9.3 2.9-13.7 4.8-16.1 7-26.3 22.2-35.4 36.4-1.1 1.6 1.5 3.1 2.5 1.5z"/>
		<path class="st0" d="m467.2 583.3c27.9 19 61.6 28.3 95.3 26.5l-1.5-1.5c-1.1 9.9 7.8 17 15 22.2 4.6 3.3 9.8 6.6 15.5 7.3 2.5 0.3 4.8 0.1 7.2-0.6 1.2-0.4 2.3-1 3.6-1.2 2.5-0.4 4.8 0.8 6.9 1.9 10.7 5.7 19.9 14 26.7 24 1.6 2.3 3.1 4.8 4.4 7.3 0.6 1.1 2 3 2 4.2-0.4 1.3-0.9 2.6-1.3 4-1 0.1-2 0.1-3 0.2-7.6 0.6-15.2 1.1-22.8 1.7-1.9 0.1-1.9 3.1 0 3 8.3-0.6 16.6-1.1 24.8-1.8 3.3-0.3 6.7-1.1 6.2-5.2-0.7-5.2-5.2-11.3-8.1-15.5-3.4-5-7.5-9.5-12-13.6-4.5-4-9.4-7.6-14.8-10.5-2-1.1-4.2-2.4-6.5-2.8-2.7-0.5-4.6 0.7-7.1 1.4-8.4 2.5-16.5-3.2-22.8-8.2-5.6-4.4-12-10-11.1-17.8 0.1-0.8-0.8-1.5-1.5-1.5-33.2 1.8-66.2-7.4-93.8-26.1-1.4-1-2.9 1.6-1.3 2.6z"/>
		<path class="st0" d="m544.7 557.2c-2.7 18.1 21.7 19.8 27.3 33.4 0.5-0.6 1-1.3 1.4-1.9-6.9-0.8-13.8-1.6-20.7-2.3-3.9-0.4-7.9-0.5-11.5-2-2.9-1.2-5.7-3-8.5-4.5-11.3-5.7-23.3-9.7-35.7-11.9-1.9-0.3-2.7 2.5-0.8 2.9 14 2.5 27.3 7.3 39.7 14.2 5 2.7 9.3 3.5 15 4.2 7.5 0.8 15 1.7 22.5 2.5 0.9 0.1 1.8-1.1 1.4-1.9-2.3-5.6-6.5-9.1-11.5-12.3-6.8-4.4-17.3-9.8-15.9-19.5 0.5-2-2.4-2.8-2.7-0.9z"/>
		<path class="st0" d="m465.6 572.2c-13.9 6.5-26.4 15.8-40.5 21.7-7.3 3.1-15.3 3-23.1 2.9-8.3-0.1-16.5-0.5-24.8-1-30.8-1.9-61.8-5.2-92.7-3.2-31.2 2.1-61.9 8.2-93.1 10.5-30.5 2.2-60.8 1.4-90.9 6.9-8.4 1.5-16.8 3.1-25.3 3.5-9.2 0.4-18.3-0.8-27.3-2.2-15.5-2.4-31-5.4-46.7-3-1.9 0.3-1.1 3.2 0.8 2.9 17-2.6 33.8 1.4 50.6 3.8 15.4 2.2 29.9 1.3 45.1-1.5 17-3.1 33.8-5 51-5.7 16.5-0.7 33.1-0.9 49.6-2.3 33.7-3 67-9.9 100.9-10.5 33.4-0.7 66.6 4.1 99.9 4.7 8.5 0.2 17.4 0.6 25.5-2.4 7.6-2.8 14.6-7.4 21.7-11.3 3.9-2.1 7.8-4.2 11.7-6.4 2.8-1.5 7.5-3 9.6-5.7s-0.4-5.8-3.4-4.4c-1.9 0.9-0.4 3.5 1.4 2.7z"/>
		<path class="st0" d="m389.8 536.4c-39.3 1.4-78.9 4.2-118.2 3.1-19.2-0.5-38.1-2.9-57.3-1.4-18.8 1.4-37.4 4.8-56.1 7.2-10.6 1.4-21.3 2.5-32 2.6-9.1 0.1-19-1-25.3-8.3-0.2 0.8-0.4 1.7-0.7 2.5 15.8-6.2 32.2-10.2 49.1-11.9 1.6-0.2 2.1-2.5 0.4-2.9-11.3-3.2-24.4-2.2-36-2-12.9 0.3-25.7 1.2-38.5 2.8-24.8 3.1-49.1 8.8-72.7 16.8-1.8 0.6-1 3.5 0.8 2.9 23.4-7.9 47.4-13.6 71.9-16.7 11.8-1.5 23.7-2.4 35.6-2.7 12.2-0.3 26.2-1.5 38 1.8 0.1-1 0.3-2 0.4-2.9-17.1 1.7-33.8 5.7-49.9 12-1.1 0.4-1.4 1.6-0.7 2.5 10.1 11.7 28.5 9.5 42.2 8.4 19.8-1.6 39.3-5.3 59-7.7 19.8-2.4 39-1.9 58.8-0.6 20.5 1.3 41 0.6 61.4-0.1 23.2-0.8 46.4-1.6 69.5-2.4 2.2 0 2.2-3 0.3-3z"/>
		<path class="st0" d="m645.6 592.1c18-7.2 36-14.4 53.9-21.6 8.1-3.2 16.2-6.5 24.2-10.1 7.2-3.3 15.4-6.7 21.5-11.7 3.2-2.6 5.9-8.2 1.9-11.5-1.8-1.5-4.1-1.3-6.2-0.7-4.8 1.3-9.5 3.7-14.1 5.6-17.4 7.1-34.4 14.9-51.3 23-9.7 4.7-19.5 9.4-29 14.4-5.3 2.8-11.1 6.6-10.9 13.3 0.1 1.9 3.1 1.9 3 0-0.3-8.6 13.6-12.9 19.9-16 8.8-4.4 17.6-8.7 26.4-12.9 17.9-8.5 36-16.6 54.5-23.7 3.9-1.5 9.2 0.5 4.8 5.4-1.7 1.8-4.4 3.1-6.5 4.3-3.7 2.1-7.5 4.1-11.4 6-8.7 4.2-17.7 7.8-26.7 11.4-18.3 7.3-36.6 14.7-54.8 22-1.7 0.6-1 3.5 0.8 2.8z"/>
		<path class="st0" d="m614.6 528.7c-1.1 5.6-1.7 11.2-1.7 17 0 3.6 0.1 7.7 3.5 9.8 2.9 1.9 6.7 1.2 9.8 0.5 6.3-1.6 12.5-4 18.5-6.4 1.8-0.7 1-3.6-0.8-2.9-6.6 2.7-14.3 6.4-21.5 6.9-10.3 0.8-6-18.1-4.9-24.1 0.4-1.9-2.5-2.7-2.9-0.8z"/>
		<path class="st0" d="m618.8 530.2c10-0.1 19.8-1.5 29.5-4.1 1.9-0.5 1.1-3.4-0.8-2.9-9.4 2.6-18.9 3.9-28.7 4-1.9 0-1.9 3 0 3z"/>
		<path class="st0" d="m549.1 537.1c8.5 0.1 17.1 0.2 25.6 0.3 5.4 0.1 14 1.9 19-1.2 4-2.4 3.7-7.3 1.2-10.8-1.8-2.5-4.5-4.2-6.4-6.6-2-2.5-3.3-5.3-5.2-7.8-3.4-4.4-8.2-6.9-13.3-8.8-6.2-2.3-12.2-4.7-18.3-7.3-11.2-4.7-23.8 7.1-30.3 15-1.2 1.5 0.9 3.6 2.1 2.1 3.6-4.5 7.8-8.3 12.7-11.3 2.4-1.5 5-3 7.7-3.6 3.6-0.9 6.4 0.5 9.5 2.1 8.1 4.1 18.4 5 25.3 11.3 3.4 3.1 5 7.5 8 11 1.5 1.7 3.4 3 4.9 4.7 2.2 2.6 2.6 6-0.4 7.8-1.3 0.8-3.1 0.5-4.6 0.6-12.5 0.3-25-0.3-37.5-0.5-2 0-2 3 0 3z"/>
		<path class="st0" d="m403.7 421.4c-2.2 5-4.8 9.8-7.8 14.3-0.7 1.1-1.5 2.6-2.4 3.5-1.1 0.6-2.2 1.3-3.3 1.9-0.5-0.3-1.1-0.6-1.6-0.9-2.6-0.7-5.6-3.1-8-4.5-6.9-3.9-15.2-8.2-22.2-2.2-1.5 1.3 0.7 3.4 2.1 2.1 6.1-5.2 13.7-0.1 19.4 3.1 2.9 1.6 8.1 6.1 11.6 5.8 3.1-0.3 5.1-4.5 6.6-6.7 3.2-4.8 5.9-9.8 8.3-15 0.7-1.6-1.9-3.2-2.7-1.4z"/>
		<path class="st0" d="m868.7 327c1.4 23.4 3.7 47 3.7 70.5 0 1.9 3 1.9 3 0 0-23.5-2.3-47.1-3.7-70.5-0.1-2-3.1-2-3 0z"/>
		<path class="st0" d="m881.3 393c7.4-14.5 14.8-30.1 10.6-46.8-0.5-1.9-3.4-1.1-2.9 0.8 4 15.8-3.2 30.7-10.3 44.4-0.9 1.8 1.7 3.3 2.6 1.6z"/>
		<path class="st0" d="m862.8 321.5c10.3-12.6 15.1-28.6 13-44.8-0.2-1.9-3.2-1.9-3 0 2 15.3-2.2 30.7-12.1 42.7-1.3 1.5 0.9 3.6 2.1 2.1z"/>
		<path class="st0" d="m835.5 339.4c2.1-4.5 3.6-9.1 4.5-13.9 0.2-1.1-0.7-2.1-1.8-1.8-3.8 0.8-9 1-12.5 2.9-3.1 1.7-4.9 6.2-6.8 9-1.1 1.6 1.5 3.1 2.6 1.5 1.8-2.7 3.7-7.3 6.9-8.3 3.3-1.1 7.1-1.5 10.5-2.2l-1.8-1.8c-0.9 4.6-2.2 9-4.1 13.2-0.9 1.6 1.7 3.2 2.5 1.4z"/>
		<path class="st0" d="m768.4 312c0.8-4.8 1.6-9.7 2.3-14.5 0.2-1.5-2-2.8-2.7-1.2-2.1 4.6-3.8 9.3-5 14.2-0.5 1.9 2.4 2.7 2.9 0.8 1.1-4.7 2.7-9.2 4.7-13.5-0.9-0.4-1.8-0.8-2.7-1.2-0.8 4.8-1.6 9.7-2.3 14.5-0.4 2 2.5 2.8 2.8 0.9z"/>
		<path class="st0" d="m752.4 306.6c1.5-3.2 2-6.6 1.5-10.2-0.2-1.1-1.8-1.4-2.5-0.7-2 2-3 4.4-3.2 7.2-0.1 1.9 2.9 1.9 3 0 0.1-2 0.9-3.7 2.3-5.1-0.8-0.2-1.7-0.4-2.5-0.7 0.4 2.7 0 5.4-1.2 7.8-0.8 1.9 1.8 3.4 2.6 1.7z"/>
		<path class="st0" d="m738 308c0.2-2.1-0.9-4-2.7-5.1-1.6-1-3.2 1.6-1.5 2.6 0.9 0.6 1.3 1.5 1.2 2.5-0.1 0.8 0.7 1.5 1.5 1.5s1.4-0.7 1.5-1.5z"/>
		<path class="st0" d="m785.4 315c0.9-2.6 2-5 3.3-7.4-0.9-0.3-1.9-0.5-2.8-0.8-0.1 5.2-1.2 10.2-3.4 15-0.8 1.7 1.8 3.3 2.6 1.5 2.4-5.2 3.7-10.7 3.8-16.5 0-1.5-2.1-2.1-2.8-0.8-1.4 2.6-2.6 5.3-3.6 8.1-0.7 1.9 2.2 2.7 2.9 0.9z"/>
		<path class="st0" d="m806.2 315.9c-0.1 2.4-1 4.5-2.4 6.5-0.9 1.2 0.9 2.9 2.1 2.1 0.9-0.7 1.8-1.3 2.7-2 1.5-1.1 0-3.7-1.5-2.6-0.9 0.7-1.8 1.3-2.7 2l2.1 2.1c1.7-2.4 2.6-5.1 2.8-8 0-2-3-2-3.1-0.1z"/>
		<path class="st0" d="m829.9 330.1c1.8-0.8 3.6-1.6 5.4-2.3 0.8-0.3 0.9-1.4 0.5-2.1-0.4-0.8-1.3-0.9-2.1-0.5-1.8 0.8-3.6 1.6-5.4 2.3-0.8 0.3-0.9 1.4-0.5 2.1 0.5 0.7 1.3 0.8 2.1 0.5z"/>
		<path class="st0" d="m718.5 308.4c0.2-1 0.5-1.9 0.7-2.9 0.5-1.9-2.4-2.7-2.9-0.8-0.2 1-0.5 1.9-0.7 2.9-0.5 1.9 2.4 2.7 2.9 0.8z"/>
		<path class="st0" d="m716.4 306.5c-0.5 0.7-1 1.5-1.5 2.2-0.4 0.7-0.1 1.7 0.5 2.1 0.7 0.4 1.6 0.1 2.1-0.5 0.5-0.7 1-1.5 1.5-2.2 0.4-0.7 0.1-1.7-0.5-2.1-0.8-0.4-1.6-0.1-2.1 0.5z"/>
		<path class="st0" d="m688.7 310.9v-0.7c0-0.8-0.7-1.5-1.5-1.5s-1.5 0.7-1.5 1.5v0.7c0 0.8 0.7 1.5 1.5 1.5s1.5-0.6 1.5-1.5z"/>
		<path class="st0" d="m688.6 311.7c1.9 0 1.9-3 0-3s-1.9 3 0 3z"/>
		<path class="st0" d="m654.6 300c-2 2.9-2.2 6.4-0.8 9.5 0.8 1.8 3.3 0.2 2.6-1.5-0.9-2.2-0.5-4.6 0.8-6.5 1.2-1.5-1.4-3-2.6-1.5z"/>
		<path class="st0" d="m642.1 303c1.9 0 1.9-3 0-3s-1.9 3 0 3z"/>
		<path class="st0" d="m615.9 308.8c1.4-2.4 2.6-4.9 3.5-7.5 0.5-1.6-2-2.7-2.7-1.2-1.4 2.8-2.8 5.7-4.3 8.5-0.9 1.7 1.7 3.2 2.6 1.5 1.4-2.8 2.8-5.7 4.3-8.5-0.9-0.4-1.8-0.8-2.7-1.2-0.8 2.4-1.9 4.7-3.2 6.8-1.1 1.8 1.5 3.3 2.5 1.6z"/>
		<path class="st0" d="m586.6 307.1c-0.2 0.2-0.5 0.3-0.8 0.2h-0.1c0.2 0.1-0.2-0.1 0 0 0 0-0.1-0.1-0.1-0.2v-0.3c0-0.2 0.1-0.3 0.2-0.5-0.5 0.6-0.6 1.5 0 2.1s1.6 0.6 2.1 0c2-2.2-1.3-5.4-3.4-3.4-0.6 0.5-0.6 1.6 0 2.1 0.6 0.6 1.5 0.5 2.1 0z"/>
		<path class="st0" d="m468.1 284.6c1.6 3.7 1 7.7-1.1 11-1.1 1.6 1.5 3.1 2.6 1.5 2.8-4.3 3.1-9.3 1.1-14-0.7-1.7-3.3-0.2-2.6 1.5z"/>
		<path class="st0" d="m688.1 777.9c1.8-4.1 15.6 2.3 18.3 3.1 6.6 2.1 13.2 4.2 19.8 6.4 12.8 4.3 23.1 10.8 33.8 18.9 9.3 7.1 19 12.9 30 17 11.6 4.3 23.6 7 35.6 9.9 25.3 6.1 50.3 10.5 76.2 13.1 24.6 2.5 49.5 5.6 71.2 18.5 22.6 13.5 39.7 34.3 54.2 55.9 1.1 1.6 3.7 0.1 2.6-1.5-13.1-19.4-28-38-47.2-51.7-20.5-14.6-44.4-20.2-69.1-23-13.9-1.6-27.8-2.6-41.7-4.7-14-2.2-27.8-5.3-41.6-8.6-12.9-3.1-26-6-38.5-10.5-13.5-4.9-24.3-12.7-35.7-21.2-11.9-8.9-24.7-13.7-38.8-18.2-7.5-2.4-15.1-5.3-22.8-7.3-3.2-0.8-7.3-1.3-8.9 2.4-0.8 1.8 1.8 3.3 2.6 1.5z"/>
		<path class="st0" d="m698.4 736.9c7 1 12.2 5.3 17.6 9.4 4.6 3.4 9.3 6.3 14.6 8.5 10.7 4.6 22.1 6.6 33.6 7.9 24.6 2.7 50.8 1.8 73 14.2 1.7 0.9 3.2-1.6 1.5-2.6-21.4-11.9-46.3-11.8-70-14.1-12.2-1.2-24.6-2.9-36-7.6-6-2.5-11.3-5.9-16.5-9.7-5.3-3.9-10.4-7.8-17.1-8.7-1.8-0.5-2.6 2.4-0.7 2.7z"/>
		<path class="st0" d="m1017.1 859.3c-1.6 5.7 3.9 9.3 7.9 12.4 5.2 4.1 10.6 8 15.9 12.1 11.8 9 23.5 18.9 30.8 32.1 3.8 6.8 6.3 14.2 9.7 21.2 3 6 6.7 11.6 11.1 16.7 8.5 9.9 19.5 17.8 31.7 22.6 16.9 6.7 35.7 6.2 52.7 12.6 1.8 0.7 2.6-2.2 0.8-2.9-14.1-5.3-29.2-5.8-43.6-9.6-13.1-3.5-25.2-10.3-34.9-19.8-10.4-10.2-15.8-22.3-21.6-35.3-5.3-11.8-13.2-21.6-22.9-30.1-5.2-4.6-10.7-8.8-16.2-12.9-2.9-2.2-5.9-4.4-8.8-6.6s-11.2-7-9.9-11.6c0.7-2-2.2-2.8-2.7-0.9z"/>
		<path class="st0" d="m1050.1 854.8c10 4.5 19.5 9.8 27.9 16.9 7.6 6.5 14.3 13.9 20.9 21.3 12 13.4 24.8 25.5 39.3 36.2 28.2 20.7 59.6 36.4 87.8 57.1 16.1 11.8 30.9 25.5 42.5 41.9 1.1 1.6 3.7 0.1 2.6-1.5-20.1-28.5-49.2-48-78.5-66-31.3-19.3-62.6-37.9-87.5-65.3-7.7-8.4-15.1-17.2-23.7-24.7-8.9-7.8-19-13.6-29.8-18.5-1.7-0.8-3.2 1.8-1.5 2.6z"/>
		<path class="st0" d="m589.7 859.2c6-0.3 11.9 1.2 16.9 4.7 2.8 2 5.4 4.3 5.9 7.8 0.5 3.7-1.9 7-4.6 9.4-2.2 2-4.7 3.6-7.6 4.4-2.2 0.7-4.5 0.6-6.7 1.2-3.4 1-4.1 3.6-4.7 6.8-1.5 8.2-2.7 17.6 2 25 2.5 3.9 6.3 6.5 10.3 8.6 5.6 3.1 11.4 5.8 17.1 8.7 0.3-0.9 0.5-1.9 0.8-2.8-9.5 0.5-18.7-0.9-27.7-4-0.7-0.3-1.7 0.3-1.8 1-2 11-4.1 23-0.2 33.9 2.1 5.9 9.4 13.1 4.5 19-3.4 4.1-7.4 7.5-10.6 11.7-13.5 17.9-20.2 40.4-18.8 62.7 0.1 1.9 3.1 1.9 3 0-1.5-23.8 6.4-47.8 22.2-65.7 2.7-3.1 7.2-6 8.7-9.9 1.6-4.1-0.6-8.2-2.6-11.7-7.1-12.6-5.7-25.4-3.2-39.2-0.6 0.3-1.2 0.7-1.8 1 9.2 3.3 18.7 4.6 28.5 4.1 1.4-0.1 2.2-2.1 0.8-2.8-11.4-5.8-28-10.6-29.2-25.4-0.2-2.6-0.1-5.2 0.2-7.8 0.3-2.3 0.3-6.4 1.4-8.5 1.4-2.7 4.7-2.2 7.3-2.8 2.3-0.6 4.5-1.5 6.5-2.7 6.2-3.7 12.9-12 7.9-19.1-5.3-7.6-15.3-11.3-24.3-10.8-2.1 0.3-2.1 3.3-0.2 3.2z"/>
		<path class="st0" d="m585.6 970c11.7 12.5 27.7 20.3 42.4 28.7 14.9 8.5 30.1 16.7 45.9 23.3 8.3 3.5 16.9 6.6 25.6 9.1 7.7 2.2 15.8 4.2 22.8 8.2 12.8 7.4 17.6 22.9 30.6 30.1 1.7 0.9 3.2-1.7 1.5-2.6-12.4-6.8-17.3-21.7-29.2-29.2-6.6-4.2-14.3-6.3-21.7-8.5-8-2.3-15.9-4.9-23.7-8-16.9-6.7-32.9-15.3-48.7-24.2-14.9-8.5-31.5-16.4-43.4-29.1-1.3-1.3-3.5 0.8-2.1 2.2z"/>
		<path class="st0" d="m620 926.2c19.9 6.3 39.7 12.6 59.6 19 19.4 6.2 38.7 12 55.9 23.3 16 10.5 31.3 22.4 46 34.6 14.6 12.1 27.9 25.3 39.2 40.5 10 13.6 23.7 29.7 42.7 24.9 1.9-0.5 1.1-3.4-0.8-2.9-20.4 5.1-33.1-15.7-43.6-29.3-11-14.2-24.2-26.4-38.1-37.6-13.9-11.3-28.2-22.4-43.1-32.3-15.7-10.4-32.9-16.3-50.7-22-22.1-7-44.2-14-66.2-21.1-1.9-0.6-2.7 2.3-0.9 2.9z"/>
		<path class="st0" d="m635.3 866.9c7.5 8.1 17.4 12.5 27.3 16.7 12.6 5.3 25.2 10.5 37.8 15.7 24.7 10.3 49.4 20.9 72.1 35.4 22.9 14.6 45.3 30.2 67.9 45.3 22.4 15 45.1 29.7 67.1 45.4 11.6 8.3 22 17.4 30.7 28.6 6.9 8.8 16 18.5 28.3 15.1 1.9-0.5 1.1-3.4-0.8-2.9-14.5 4-22.9-12-30.8-21-7.2-8.2-15.7-15-24.5-21.4-21.3-15.4-43.4-29.6-65.2-44.2-21.6-14.5-43.2-29.1-65-43.5-21.3-14-44.1-25-67.5-34.9-13.1-5.6-26.3-11-39.4-16.5-12.6-5.2-26.3-9.8-35.8-20-1.4-1.3-3.5 0.8-2.2 2.2z"/>
		<path class="st0" d="m598.4 891.5c5.9 8 14.8 11.8 23.6 15.9 11.2 5.2 22.5 10.3 33.9 15.1s23 9 34.8 12.8 23.7 7.5 35 12.9c22.5 10.8 43.2 25.8 63.3 40.4 19.5 14.1 39.5 28.1 57.7 43.9 10 8.6 17.9 18.2 25.8 28.7 7.2 9.4 17.2 9.2 28 7.4 1.9-0.3 1.1-3.2-0.8-2.9-5.4 0.9-11.4 1.8-16.7 0-6.6-2.3-9.8-9-13.8-14.3-6.3-8.2-13.8-15.5-21.7-22.2-16.6-14.2-34.7-27-52.4-39.9-19.2-14-38.8-28.2-59.7-39.6-20.1-10.9-42.2-16.2-63.5-24.2-13.1-4.9-26-10.6-38.8-16.4-10.8-4.9-24.9-9.2-32.2-19.2-1.1-1.4-3.7 0.1-2.5 1.6z"/>
		<path class="st0" d="m651.5 876.7c12.4 0.1 24.8 0.3 36.8 3.7 11.2 3.2 21.7 8.6 32 14 21.5 11.4 43.1 22.7 64.8 33.8 43.6 22.2 87.6 43.6 132 64.1 25.1 11.6 50.4 22.9 75.8 34 1.8 0.8 3.3-1.8 1.5-2.6-91.5-40-181.4-83.4-269.4-130.3-11-5.9-22.1-11.8-34.1-15.5-12.8-3.9-26.1-4.2-39.3-4.3-2 0-2 3-0.1 3.1z"/>
		<path class="st0" d="m658.8 838.3c26.8 0.4 52.6 7.9 77.9 16.2 21.9 7.2 43.6 15.1 64.9 23.8 43.4 17.8 85.5 39.3 123.8 66.4 21.8 15.4 42.1 32.6 60.7 51.7 1.3 1.4 3.5-0.7 2.1-2.1-66.7-68.4-154.9-110.4-244.4-140.5-27.6-9.3-55.8-18-85.1-18.4-1.8-0.2-1.8 2.8 0.1 2.9z"/>
		<path class="st0" d="m691.6 812.5c34.2 4.5 65.5 22.9 96.2 37.6l97.2 46.5c1.7 0.8 3.3-1.8 1.5-2.6-33.6-16.1-67.2-32.1-100.8-48.2-30.1-14.4-60.6-31.8-94.1-36.3-1.9-0.3-1.9 2.7 0 3z"/>
		<path class="st0" d="m449.5 753.2c-18.3-14.3-41.8-17.3-64.4-17.8-14-0.3-28.1 0.2-42-1.4-14.2-1.6-27.4-6.1-40.8-10.8-26.3-9.3-53.9-14.5-81.2-19.8-26.8-5.1-53.8-8.8-81.1-7-28.7 2-56.8 9.3-83 21.3-1.8 0.8-0.2 3.4 1.5 2.6 24-11 49.7-18.1 76-20.5 26.9-2.5 53.6 0.5 80.1 5.4 25.8 4.8 52 9.5 77 17.5 12.6 4 24.9 9.3 37.9 12.1 12.6 2.8 25.5 3.2 38.3 3.3 27.1 0.3 57-0.5 79.5 17.1 1.6 1.3 3.7-0.8 2.2-2z"/>
		<path class="st0" d="m426.5 677.9c-82.4-15.2-166.4-30.6-250.5-21.2-22.5 2.5-44.8 6.9-66.5 13.4-1.8 0.5-1.1 3.4 0.8 2.9 79.8-23.8 164.2-17.6 245.3-4.6 23.4 3.8 46.7 8.1 70.1 12.4 1.9 0.4 2.7-2.5 0.8-2.9z"/>
		<path class="st0" d="m404.3 821.3c-81-29-168.4-29.6-253.3-23.3-24.9 1.8-49.7 4.3-74.5 6.7-1.9 0.2-1.9 3.2 0 3 85.6-8.3 172.7-16.7 258.1-1.6 23.4 4.2 46.5 10.1 68.9 18.1 1.9 0.7 2.6-2.2 0.8-2.9z"/>
		<path class="st0" d="m407.8 754.3c-17.7-6.7-36.3-9.7-55-11.6-20.3-2.1-40.8-3.5-61.2-4.3-40.5-1.7-81.2-1-121.6 2-22.7 1.7-45.2 4.1-67.7 7.3-1.9 0.3-1.1 3.2 0.8 2.9 79.3-11 159.8-13 239.5-5.9 21.9 2 43.8 4.7 64.5 12.5 1.7 0.6 2.4-2.3 0.7-2.9z"/>
		<path class="st0" d="m402.6 853.4c-28.5-11.5-59.4-13.9-89.9-13.1-32.7 0.9-65.5 4.4-97.8 9.5-18.8 3-37.4 6.6-55.9 10.8-1.9 0.4-1.1 3.3 0.8 2.9 32.2-7.3 64.8-12.8 97.6-16.2 30.7-3.2 62.1-5.7 93-2.9 17.6 1.6 35 5.4 51.4 12 1.8 0.6 2.5-2.3 0.8-3z"/>
		<path class="st0" d="m400.5 890.2c-33.5-10.7-70.7-8.2-105.1-3.9-35.2 4.5-69.8 12.8-103.8 22.7-19.9 5.8-39.7 12.1-59.4 18.5-1.8 0.6-1 3.5 0.8 2.9 67.1-21.8 135.9-43 207.1-44.5 20.2-0.4 40.4 1 59.7 7.1 1.7 0.7 2.5-2.2 0.7-2.8z"/>
		<path class="st0" d="m358.7 951.1c-92.1-11.3-181.7 24-258.6 71.9-22 13.7-43.4 28.5-64.3 43.8-1.5 1.1 0 3.7 1.5 2.6 72.7-52.9 152.3-101.4 242.9-114.3 26-3.7 52.5-4.2 78.6-1 1.8 0.2 1.7-2.8-0.1-3z"/>
		<path class="st0" d="m512.5 236.4c0.2-6.5 1-12.9 2.3-19.2 0.4-1.9-2.5-2.7-2.9-0.8-1.4 6.6-2.2 13.3-2.4 20-0.1 2 2.9 2 3 0z"/>
		<path class="st0" d="m509.9 218.6c-3.8 5.4-11.1 2.4-16.2 4.9-3.8 1.8-5.5 5.9-6.9 9.5-0.7 1.8 2.2 2.6 2.9 0.8 1.2-2.9 2.4-5.8 5.2-7.4 2.5-1.4 5.4-1.1 8.2-1.4 3.9-0.5 7.1-1.7 9.4-5 1.1-1.4-1.5-2.9-2.6-1.4z"/>
</svg>
